
<!-- social -->
<svg width="30" height="30" viewBox="0 0 30 30"  xmlns="http://www.w3.org/2000/svg" xmlns:xlink="http://www.w3.org/1999/xlink"> 

	<g id="linkedin">
		<g clip-path="url(#clip0_2_5677)">
		<path d="M15.0001 0.600098C7.0471 0.600098 0.600098 7.0471 0.600098 15.0001C0.600098 22.9531 7.0471 29.4001 15.0001 29.4001C22.9531 29.4001 29.4001 22.9531 29.4001 15.0001C29.4001 7.0471 22.9531 0.600098 15.0001 0.600098ZM11.4751 20.9686H8.5591V11.5846H11.4751V20.9686ZM9.9991 10.4326C9.0781 10.4326 8.4826 9.7801 8.4826 8.9731C8.4826 8.1496 9.0961 7.5166 10.0366 7.5166C10.9771 7.5166 11.5531 8.1496 11.5711 8.9731C11.5711 9.7801 10.9771 10.4326 9.9991 10.4326ZM22.1251 20.9686H19.2091V15.7681C19.2091 14.5576 18.7861 13.7356 17.7316 13.7356C16.9261 13.7356 16.4476 14.2921 16.2361 14.8276C16.1581 15.0181 16.1386 15.2881 16.1386 15.5566V20.9671H13.2211V14.5771C13.2211 13.4056 13.1836 12.4261 13.1446 11.5831H15.6781L15.8116 12.8866H15.8701C16.2541 12.2746 17.1946 11.3716 18.7681 11.3716C20.6866 11.3716 22.1251 12.6571 22.1251 15.4201V20.9686Z" fill="#666666"/>
		</g>
		<defs>
		<clipPath id="clip0_2_5677">
		<rect width="30" height="30" fill="white"/>
		</clipPath>
		</defs>
	</g>

	<g id="github">
		<path fill-rule="evenodd" clip-rule="evenodd" d="M15 0C6.7125 0 0 6.7125 0 15C0 21.6375 4.29375 27.2437 10.2563 29.2313C11.0063 29.3625 11.2875 28.9125 11.2875 28.5188C11.2875 28.1625 11.2688 26.9813 11.2688 25.725C7.5 26.4188 6.525 24.8062 6.225 23.9625C6.05625 23.5312 5.325 22.2 4.6875 21.8438C4.1625 21.5625 3.4125 20.8687 4.66875 20.85C5.85 20.8313 6.69375 21.9375 6.975 22.3875C8.325 24.6562 10.4812 24.0187 11.3438 23.625C11.475 22.65 11.8688 21.9937 12.3 21.6187C8.9625 21.2437 5.475 19.95 5.475 14.2125C5.475 12.5813 6.05625 11.2313 7.0125 10.1813C6.8625 9.80625 6.3375 8.26875 7.1625 6.20625C7.1625 6.20625 8.41875 5.8125 11.2875 7.74375C12.4875 7.40625 13.7625 7.2375 15.0375 7.2375C16.3125 7.2375 17.5875 7.40625 18.7875 7.74375C21.6562 5.79375 22.9125 6.20625 22.9125 6.20625C23.7375 8.26875 23.2125 9.80625 23.0625 10.1813C24.0188 11.2313 24.6 12.5625 24.6 14.2125C24.6 19.9688 21.0938 21.2437 17.7563 21.6187C18.3 22.0875 18.7688 22.9875 18.7688 24.3937C18.7688 26.4 18.75 28.0125 18.75 28.5188C18.75 28.9125 19.0312 29.3813 19.7812 29.2313C22.759 28.2259 25.3465 26.3121 27.1796 23.7592C29.0127 21.2063 29.9991 18.1429 30 15C30 6.7125 23.2875 0 15 0Z" fill="#666666"/>
	</g>

</svg>


<!-- skills -->
<svg xmlns="http://www.w3.org/2000/svg" viewBox="0 0 128 128">
	<g id="vscode">
		<mask id="a" width="108" height="108" x="10" y="0" maskUnits="userSpaceOnUse" style="mask-type:alpha"><path fill="#fff" fill-rule="evenodd" d="M86.585 107.263c1.7.662 3.64.62 5.357-.206l22.236-10.7A6.75 6.75 0 0 0 118 90.274V17.726a6.751 6.751 0 0 0-3.822-6.083L91.942.943a6.724 6.724 0 0 0-7.671 1.307L41.703 41.085 23.163 27.01a4.495 4.495 0 0 0-5.744.256l-5.947 5.41a4.502 4.502 0 0 0-.005 6.654L27.547 54l-16.08 14.67a4.502 4.502 0 0 0 .005 6.655l5.947 5.41a4.495 4.495 0 0 0 5.743.255l18.541-14.075L84.27 105.75a6.724 6.724 0 0 0 2.315 1.513Zm4.431-77.78L58.718 54l32.298 24.517V29.483Z" clip-rule="evenodd"/></mask><path fill="#0877b9" fill-rule="evenodd" d="M35.206 124.462c-.35 0-.657.028-.916.087-.262.058-.479.15-.65.266-.159.106-.29.25-.379.421a1.287 1.287 0 0 0-.12.565c0 .363.117.655.346.87.235.214.558.32.974.32.33.003.654-.085.938-.253.29-.175.59-.437.91-.79v-1.486zm35.719-3.069c-.329 0-.608.08-.837.238a1.796 1.796 0 0 0-.557.616 2.992 2.992 0 0 0-.313.864 5.08 5.08 0 0 0-.096.984c0 .35.025.695.084 1.037.053.337.149.636.283.898.133.264.316.476.537.633.224.158.503.238.845.238.17 0 .333-.026.49-.07.175-.054.342-.132.492-.234a3.7 3.7 0 0 0 .522-.425c.206-.202.4-.418.578-.646v-2.805c-.35-.432-.688-.762-1.013-.987a1.756 1.756 0 0 0-1.015-.34Zm12.989-.03c-.384 0-.712.068-.987.205a1.805 1.805 0 0 0-.682.57 2.714 2.714 0 0 0-.397.878c-.09.363-.132.736-.127 1.109 0 .387.031.745.103 1.082.07.34.192.637.354.886.166.254.387.454.666.6.279.148.624.224 1.041.224.374 0 .703-.07.982-.204.28-.137.504-.325.683-.57.179-.24.313-.533.395-.874a4.647 4.647 0 0 0 .125-1.115c0-.38-.032-.738-.107-1.075a2.697 2.697 0 0 0-.35-.89 1.776 1.776 0 0 0-.659-.604c-.277-.146-.623-.222-1.04-.222zm-6.39-.965c.128 0 .237.004.32.013a.83.83 0 0 1 .195.05c.04.016.075.041.1.074a.182.182 0 0 1 .03.105v7.019a.172.172 0 0 1-.03.103.246.246 0 0 1-.1.075.877.877 0 0 1-.195.046c-.21.02-.422.02-.633 0a.91.91 0 0 1-.199-.045.202.202 0 0 1-.1-.075.205.205 0 0 1-.03-.104v-7.02a.234.234 0 0 1 .03-.104c.016-.028.05-.053.1-.074a.857.857 0 0 1 .2-.05c.083-.01.187-.013.312-.013zm-16.668 0c.124 0 .228.004.31.013a.497.497 0 0 1 .2.046.27.27 0 0 1 .107.074.192.192 0 0 1 .032.109v4.084c0 .412.028.74.087.987a1.918 1.918 0 0 0 .274.632c.12.174.275.309.462.405.188.094.409.145.658.145.32 0 .641-.112.962-.342.32-.229.658-.565 1.02-1.008v-4.904a.23.23 0 0 1 .025-.107.239.239 0 0 1 .104-.074.538.538 0 0 1 .2-.048c.078-.007.187-.011.316-.011.125 0 .23.003.312.012a.464.464 0 0 1 .196.045c.04.017.075.043.104.075a.16.16 0 0 1 .033.109v7.019a.202.202 0 0 1-.025.103.206.206 0 0 1-.096.075.894.894 0 0 1-.18.045c-.192.022-.382.022-.572 0a.659.659 0 0 1-.18-.044.192.192 0 0 1-.092-.075.2.2 0 0 1-.02-.104v-.93c-.404.443-.8.762-1.186.967a2.547 2.547 0 0 1-1.186.304c-.467 0-.864-.08-1.183-.233a2.043 2.043 0 0 1-.775-.637 2.473 2.473 0 0 1-.424-.938 5.503 5.503 0 0 1-.128-1.294v-4.258c0-.043.007-.08.027-.11a.215.215 0 0 1 .105-.074.536.536 0 0 1 .203-.047c.084-.007.184-.01.31-.01zm-35.933 0c.126 0 .23.004.313.013a.497.497 0 0 1 .2.046c.04.017.074.042.103.074.021.032.032.07.03.109v4.084c0 .412.029.74.092.987.057.249.149.458.27.632.125.174.28.309.466.405.188.094.405.145.653.145.325 0 .646-.112.967-.342.316-.229.658-.565 1.016-1.008v-4.904c0-.04.008-.078.028-.107a.215.215 0 0 1 .105-.074.497.497 0 0 1 .2-.048c.105-.01.21-.013.316-.011.121 0 .224.003.309.012a.475.475 0 0 1 .195.045.378.378 0 0 1 .108.075.192.192 0 0 1 .032.109v7.019a.172.172 0 0 1-.028.103.206.206 0 0 1-.096.075.77.77 0 0 1-.181.045 2.43 2.43 0 0 1-.572 0 .748.748 0 0 1-.18-.044c-.045-.022-.074-.047-.085-.075a.202.202 0 0 1-.027-.104v-.93c-.398.443-.795.762-1.186.967-.362.197-.77.301-1.183.304-.469 0-.861-.08-1.183-.233a2.089 2.089 0 0 1-.778-.637 2.608 2.608 0 0 1-.424-.938 5.726 5.726 0 0 1-.128-1.294v-4.258c0-.043.008-.08.028-.11a.239.239 0 0 1 .104-.074.537.537 0 0 1 .204-.047c.083-.007.187-.01.313-.01v-.001zm-9.95 0a3.2 3.2 0 0 1 .321.013.794.794 0 0 1 .192.05.233.233 0 0 1 .103.074c.022.033.03.067.03.105v7.019a.173.173 0 0 1-.03.103.233.233 0 0 1-.103.075.847.847 0 0 1-.192.046c-.21.02-.422.02-.632 0a.92.92 0 0 1-.2-.045.202.202 0 0 1-.1-.075.17.17 0 0 1-.03-.104v-7.02c0-.037.01-.073.03-.104.017-.028.05-.053.1-.074a.857.857 0 0 1 .2-.05c.082-.01.188-.013.312-.013zm68.99-.112c.58 0 1.083.086 1.512.258.413.159.78.416 1.07.75.288.327.499.724.645 1.194.142.467.213.995.213 1.582 0 .57-.075 1.098-.226 1.578a3.457 3.457 0 0 1-.673 1.245 3.059 3.059 0 0 1-1.125.816c-.45.195-.97.29-1.561.29-.579 0-1.082-.087-1.511-.257a2.707 2.707 0 0 1-1.07-.75 3.155 3.155 0 0 1-.642-1.19 5.526 5.526 0 0 1-.212-1.59c0-.575.075-1.099.225-1.582a3.368 3.368 0 0 1 .671-1.24 2.98 2.98 0 0 1 1.12-.813c.445-.195.97-.291 1.566-.291zm-49.145 0c.505 0 .934.059 1.287.175.355.112.641.279.858.504.216.22.375.49.474.82.1.328.15.711.15 1.148v4.733c0 .064-.02.109-.062.139a.433.433 0 0 1-.17.07c-.107.02-.213.028-.322.025a1.65 1.65 0 0 1-.324-.025.387.387 0 0 1-.175-.07c-.037-.03-.053-.075-.053-.139v-.703a3.471 3.471 0 0 1-1.03.767 2.739 2.739 0 0 1-1.193.27c-.371 0-.703-.046-1.004-.146a2.15 2.15 0 0 1-.762-.416 1.804 1.804 0 0 1-.49-.671 2.227 2.227 0 0 1-.176-.903c0-.394.079-.74.242-1.028.164-.298.402-.548.69-.728a3.416 3.416 0 0 1 1.109-.433 6.906 6.906 0 0 1 1.473-.142h.97v-.545c0-.271-.03-.513-.088-.72a1.259 1.259 0 0 0-.275-.517 1.23 1.23 0 0 0-.495-.312 2.291 2.291 0 0 0-.75-.109c-.315 0-.603.043-.852.118-.228.065-.451.149-.666.25-.188.086-.347.17-.476.244-.124.08-.22.117-.282.117a.189.189 0 0 1-.109-.034.254.254 0 0 1-.083-.091.416.416 0 0 1-.05-.162 1.125 1.125 0 0 1-.017-.214c0-.127.008-.232.03-.306a.479.479 0 0 1 .128-.217c.071-.067.191-.146.362-.237.176-.092.37-.175.597-.25a5.53 5.53 0 0 1 .73-.187c.266-.05.535-.075.804-.075zm-14.99 0c.187 0 .375.016.561.05.188.029.354.07.509.116a1.988 1.988 0 0 1 .624.295c.043.03.082.067.113.11a.426.426 0 0 1 .037.108c.01.037.017.083.025.14.01.148.01.296 0 .443a.487.487 0 0 1-.042.158c-.016.041-.037.074-.067.091a.156.156 0 0 1-.083.03c-.05 0-.116-.03-.202-.088a2.46 2.46 0 0 0-.341-.184 3.908 3.908 0 0 0-.497-.183 2.256 2.256 0 0 0-.653-.086 2.019 2.019 0 0 0-.576.074 1.119 1.119 0 0 0-.411.214.874.874 0 0 0-.242.318 1.017 1.017 0 0 0-.079.408c0 .2.05.371.155.509.103.141.24.262.407.365.163.1.354.196.566.28l.654.258c.22.087.437.187.653.296.217.108.409.242.576.394.166.16.298.346.398.563.1.22.155.48.155.783 0 .358-.067.679-.2.957a1.995 1.995 0 0 1-.566.712 2.525 2.525 0 0 1-.874.433 3.911 3.911 0 0 1-1.116.15c-.245 0-.487-.021-.712-.059a3.72 3.72 0 0 1-.607-.149 2.85 2.85 0 0 1-.459-.187 1.186 1.186 0 0 1-.27-.175.424.424 0 0 1-.126-.217 1.92 1.92 0 0 1-.025-.633.874.874 0 0 1 .043-.163.192.192 0 0 1 .062-.09.201.201 0 0 1 .099-.026c.059 0 .142.033.256.105.11.07.248.145.411.229.162.083.357.162.582.233.222.066.48.103.77.103.217 0 .416-.024.592-.07.165-.04.322-.11.461-.209a.906.906 0 0 0 .3-.345 1.11 1.11 0 0 0 .104-.5.826.826 0 0 0-.149-.499 1.54 1.54 0 0 0-.405-.358 3.547 3.547 0 0 0-.56-.279 65.496 65.496 0 0 1-.642-.25 7.673 7.673 0 0 1-.65-.304 2.39 2.39 0 0 1-.562-.407 1.89 1.89 0 0 1-.404-.576 1.962 1.962 0 0 1-.149-.802 1.886 1.886 0 0 1 .637-1.457c.214-.188.48-.341.8-.454a3.274 3.274 0 0 1 1.119-.175zm36.04-1.77c.128 0 .236.01.32.017a.806.806 0 0 1 .196.05c.04.018.074.047.1.083a.168.168 0 0 1 .032.1v1.67h1.8a.207.207 0 0 1 .112.03.217.217 0 0 1 .079.09.43.43 0 0 1 .05.167c.013.07.016.154.016.25 0 .187-.025.324-.07.408-.046.083-.11.124-.187.124h-1.8v3.914c0 .484.071.85.214 1.094.145.246.399.371.77.371.117 0 .223-.013.32-.033a3.975 3.975 0 0 0 .246-.075 1.545 1.545 0 0 0 .186-.074.343.343 0 0 1 .142-.034c.025 0 .05.005.074.017a.129.129 0 0 1 .055.074 1.212 1.212 0 0 1 .05.383c0 .15-.008.27-.03.358a.41.41 0 0 1-.095.196.626.626 0 0 1-.188.117 1.641 1.641 0 0 1-.282.091 7.373 7.373 0 0 1-.341.059 3.35 3.35 0 0 1-.358.02 2.77 2.77 0 0 1-.938-.14 1.513 1.513 0 0 1-.636-.438 1.788 1.788 0 0 1-.363-.742 4.387 4.387 0 0 1-.113-1.057v-4.1h-.98c-.08 0-.143-.042-.189-.125-.05-.084-.07-.221-.07-.409 0-.095.004-.179.017-.249a.957.957 0 0 1 .053-.166.194.194 0 0 1 .08-.092.207.207 0 0 1 .112-.03h.979v-1.669c0-.037.007-.071.024-.099a.245.245 0 0 1 .104-.085.778.778 0 0 1 .197-.05c.103-.01.207-.016.312-.016zm-51.06-.803c.145 0 .258.004.346.013a.847.847 0 0 1 .199.04.262.262 0 0 1 .104.084.637.637 0 0 1 .066.13l2.894 8.493h.009l2.813-8.477a.731.731 0 0 1 .053-.142.213.213 0 0 1 .11-.086.972.972 0 0 1 .22-.043c.253-.02.507-.016.758.009.092.013.154.037.187.075.038.038.05.088.043.158-.015.096-.04.19-.075.28l-3.289 9.37a.375.375 0 0 1-.087.142.375.375 0 0 1-.155.087 1.1 1.1 0 0 1-.25.042 4.896 4.896 0 0 1-.374.012c-.118 0-.217-.004-.304-.004a1.699 1.699 0 0 1-.378-.053.283.283 0 0 1-.114-.054.206.206 0 0 1-.075-.072.37.37 0 0 1-.05-.107l-3.3-9.372a1.044 1.044 0 0 1-.067-.279c0-.07.022-.12.066-.158a.485.485 0 0 1 .23-.071c.1-.01.241-.016.42-.016zm45.472-.1c.446.002.889.075 1.311.216.2.063.38.138.538.217.155.08.258.146.31.196a.58.58 0 0 1 .095.116c.018.034.031.07.036.109a.838.838 0 0 1 .025.162c.004.063.008.141.008.242 0 .091-.004.174-.012.245a1.43 1.43 0 0 1-.032.186.252.252 0 0 1-.068.109.166.166 0 0 1-.1.033c-.053 0-.146-.036-.266-.107a7.966 7.966 0 0 0-.45-.247 3.808 3.808 0 0 0-.629-.25 2.747 2.747 0 0 0-.816-.111c-.277 0-.524.037-.731.113a1.437 1.437 0 0 0-.512.298 1.164 1.164 0 0 0-.305.446 1.51 1.51 0 0 0-.104.545c0 .28.066.525.196.725.128.204.303.384.52.537.217.158.462.299.737.433.275.129.554.258.842.391.285.133.565.28.84.437.279.159.524.346.737.563.218.22.396.477.524.76.134.297.2.642.2 1.042 0 .474-.088.895-.263 1.266a2.739 2.739 0 0 1-.724.94 3.128 3.128 0 0 1-1.095.58 4.55 4.55 0 0 1-1.353.195c-.337 0-.65-.03-.937-.088a4.853 4.853 0 0 1-.774-.209 3.674 3.674 0 0 1-.565-.256 1.423 1.423 0 0 1-.321-.225.551.551 0 0 1-.134-.238 1.403 1.403 0 0 1-.042-.388c0-.116.005-.208.014-.282a.798.798 0 0 1 .049-.188.205.205 0 0 1 .074-.096.244.244 0 0 1 .113-.024c.072 0 .176.041.31.129.127.091.298.187.507.292.207.103.458.199.753.29.33.098.675.143 1.02.138.27.001.537-.038.795-.117a1.908 1.908 0 0 0 .624-.333c.175-.141.31-.316.405-.528a1.716 1.716 0 0 0 .141-.709 1.332 1.332 0 0 0-.196-.731 1.953 1.953 0 0 0-.516-.533 4.295 4.295 0 0 0-.729-.42l-.836-.392a9.15 9.15 0 0 1-.837-.441 3.49 3.49 0 0 1-.725-.571 2.673 2.673 0 0 1-.52-.766 2.624 2.624 0 0 1-.196-1.058c0-.42.075-.795.23-1.127.153-.33.366-.604.637-.829a2.846 2.846 0 0 1 .978-.512 4.11 4.11 0 0 1 1.22-.175zm27.251-.109c.3 0 .508.05.621.16.112.107.167.308.167.602 0 .305-.058.509-.17.616-.118.113-.326.168-.634.168-.298 0-.507-.055-.62-.163-.113-.104-.166-.308-.166-.604 0-.299.057-.507.17-.616.117-.108.325-.163.632-.163zm-62.548 0c.298 0 .507.05.62.16.108.107.165.308.165.602 0 .305-.057.509-.17.616-.116.113-.328.168-.632.168-.305 0-.508-.055-.62-.163-.113-.104-.167-.308-.167-.604 0-.299.054-.507.17-.616.113-.108.325-.163.633-.163zm58.606-.482c.129 0 .238.004.32.017.084.012.15.028.197.045a.236.236 0 0 1 .103.08.181.181 0 0 1 .039.108v10.387a.234.234 0 0 1-.03.107.214.214 0 0 1-.092.075 1.033 1.033 0 0 1-.179.043 2.157 2.157 0 0 1-.537 0 1.146 1.146 0 0 1-.18-.043.243.243 0 0 1-.098-.075.197.197 0 0 1-.034-.107v-.93c-.33.372-.719.689-1.15.938-.394.22-.83.333-1.306.333-.511 0-.954-.1-1.316-.3a2.451 2.451 0 0 1-.887-.812 3.615 3.615 0 0 1-.494-1.199 6.593 6.593 0 0 1-.155-1.458c0-.602.062-1.144.192-1.63.132-.488.324-.9.579-1.245.247-.338.572-.61.948-.792a2.94 2.94 0 0 1 1.304-.278 2.4 2.4 0 0 1 1.13.27c.34.18.677.446 1.01.791v-4.075c0-.038.008-.075.024-.109a.209.209 0 0 1 .105-.079c.164-.05.335-.072.507-.062zm-32.663-.033c.13 0 .235.004.317.016a.634.634 0 0 1 .195.047.226.226 0 0 1 .104.078.18.18 0 0 1 .03.11v10.419a.173.173 0 0 1-.03.103.264.264 0 0 1-.104.075.817.817 0 0 1-.195.046c-.21.02-.42.02-.629 0a.911.911 0 0 1-.2-.045.236.236 0 0 1-.104-.075.202.202 0 0 1-.025-.104v-10.421c0-.037.008-.075.025-.108a.213.213 0 0 1 .104-.079.76.76 0 0 1 .2-.046 2.185 2.185 0 0 1 .312-.016zm71.7 4.404c-.33 0-.608.08-.837.238a1.797 1.797 0 0 0-.557.616 3.013 3.013 0 0 0-.313.864 5.162 5.162 0 0 0-.095.984c0 .35.024.695.083 1.037.053.337.146.636.282.898.133.264.313.476.537.633.225.158.504.238.842.238.175 0 .337-.026.496-.07.172-.055.337-.133.487-.234.166-.108.34-.25.524-.425.183-.175.374-.391.579-.646v-2.805c-.35-.432-.688-.762-1.013-.987a1.774 1.774 0 0 0-1.014-.34zm-8.305-.03c-.384 0-.712.068-.986.205a1.807 1.807 0 0 0-.683.57 2.611 2.611 0 0 0-.396.878c-.09.363-.133.736-.129 1.109 0 .387.033.745.104 1.082.071.34.191.637.353.886.168.254.388.454.667.6.28.148.624.224 1.037.224.379 0 .707-.07.986-.203a1.85 1.85 0 0 0 .682-.57c.18-.242.31-.534.397-.875.086-.365.128-.74.125-1.115a5.198 5.198 0 0 0-.11-1.075 2.713 2.713 0 0 0-.349-.89 1.754 1.754 0 0 0-.66-.604c-.276-.146-.626-.221-1.038-.221zm16.432-.07a1.912 1.912 0 0 0-.838.18 1.844 1.844 0 0 0-.603.474 2.183 2.183 0 0 0-.38.691 2.974 2.974 0 0 0-.148.824h3.829c.017-.675-.133-1.207-.45-1.59-.315-.387-.786-.579-1.41-.579zm.066-1.007c.554 0 1.02.092 1.407.267.369.163.697.408.96.715.247.296.43.65.547 1.05.118.42.177.854.175 1.29v.238c0 .199-.05.345-.154.431a.529.529 0 0 1-.346.126h-4.624c0 .391.041.74.12 1.053.076.313.208.583.391.804.184.223.421.395.712.515.292.122.65.18 1.074.18a4.692 4.692 0 0 0 1.57-.266c.192-.067.35-.13.47-.183a.778.778 0 0 1 .28-.08c.037 0 .07.009.1.025a.218.218 0 0 1 .066.084.911.911 0 0 1 .033.149c.016.138.017.278.004.416a1.091 1.091 0 0 1-.022.134.347.347 0 0 1-.107.191.973.973 0 0 1-.254.142 3.316 3.316 0 0 1-.546.192 8.168 8.168 0 0 1-.774.166 5.68 5.68 0 0 1-.941.075c-.579 0-1.082-.08-1.515-.24a2.857 2.857 0 0 1-1.099-.717 3.144 3.144 0 0 1-.67-1.196c-.15-.48-.225-1.031-.225-1.669 0-.604.08-1.144.233-1.624.14-.45.37-.868.674-1.228a3 3 0 0 1 1.066-.77 3.484 3.484 0 0 1 1.395-.27zm-16.448 0c.58 0 1.082.086 1.51.258.412.16.78.417 1.07.75.289.327.5.724.647 1.194.14.467.212.995.212 1.583 0 .57-.075 1.097-.224 1.577a3.44 3.44 0 0 1-.676 1.245 3.053 3.053 0 0 1-1.124.816c-.45.195-.97.29-1.56.29-.58 0-1.083-.086-1.511-.257a2.705 2.705 0 0 1-1.07-.75 3.155 3.155 0 0 1-.642-1.19 5.497 5.497 0 0 1-.213-1.59c0-.575.075-1.099.226-1.582a3.37 3.37 0 0 1 .67-1.24 3.003 3.003 0 0 1 1.12-.813c.445-.195.966-.29 1.566-.29zm-7.739-2.648c.291 0 .575.025.849.08.28.053.533.124.767.207.232.084.44.18.623.288.184.107.31.198.38.27a.81.81 0 0 1 .133.159c.026.039.043.083.053.129a1.993 1.993 0 0 1 .026.682.693.693 0 0 1-.046.183.246.246 0 0 1-.074.109.15.15 0 0 1-.105.037c-.075 0-.175-.05-.309-.153a4.795 4.795 0 0 0-.503-.333 3.902 3.902 0 0 0-.753-.339 3.347 3.347 0 0 0-1.062-.15c-.45 0-.858.088-1.228.267a2.613 2.613 0 0 0-.945.792 3.916 3.916 0 0 0-.607 1.278 6.337 6.337 0 0 0-.218 1.719c0 .637.072 1.203.209 1.695.142.49.337.902.596 1.232.262.328.578.578.953.749.379.166.803.253 1.277.253.405 0 .754-.05 1.054-.149.267-.084.525-.194.77-.33.179-.1.351-.212.52-.332.137-.1.246-.15.32-.15a.178.178 0 0 1 .097.025c.028.022.05.053.061.087.02.06.032.121.039.183.004.08.007.18.007.299 0 .085 0 .155-.003.218a1.31 1.31 0 0 1-.03.162.434.434 0 0 1-.05.125.655.655 0 0 1-.107.133 2.125 2.125 0 0 1-.33.238 3.666 3.666 0 0 1-.62.312 4.831 4.831 0 0 1-.85.258 4.883 4.883 0 0 1-1.048.104 4.632 4.632 0 0 1-1.774-.325 3.571 3.571 0 0 1-1.349-.97c-.374-.425-.657-.948-.858-1.577-.202-.625-.298-1.35-.298-2.165 0-.837.103-1.582.32-2.236.191-.609.5-1.175.908-1.665a3.88 3.88 0 0 1 1.402-1.041 4.387 4.387 0 0 1 1.803-.358zm18.66-.616c.127 0 .236.004.319.017a1.018 1.018 0 0 1 .195.046.262.262 0 0 1 .104.078.181.181 0 0 1 .038.11v10.386a.239.239 0 0 1-.029.107.207.207 0 0 1-.096.075.891.891 0 0 1-.175.043 2.149 2.149 0 0 1-.536 0 1.164 1.164 0 0 1-.18-.043.248.248 0 0 1-.1-.075.193.193 0 0 1-.032-.107v-.93a4.776 4.776 0 0 1-1.15.938 2.654 2.654 0 0 1-1.307.333c-.512 0-.953-.1-1.316-.3a2.458 2.458 0 0 1-.886-.812 3.609 3.609 0 0 1-.496-1.199 6.572 6.572 0 0 1-.153-1.458c0-.602.062-1.144.191-1.63.134-.488.325-.9.579-1.245.247-.338.572-.61.949-.792a2.944 2.944 0 0 1 1.303-.278c.412 0 .786.092 1.127.27a4.07 4.07 0 0 1 1.013.792v-4.076a.26.26 0 0 1 .024-.109c.016-.034.054-.058.105-.078.065-.02.132-.036.2-.046.083-.013.182-.017.308-.017z" clip-rule="evenodd" stroke-width="1.06574"/><g mask="url(#a)" transform="matrix(1.06574 0 0 1.06574 -2.798 -.297)"><path fill="#0065a9" d="M114.178 11.66 91.925.945A6.727 6.727 0 0 0 84.25 2.25L11.402 68.67a4.5 4.5 0 0 0 .005 6.655l5.95 5.41a4.5 4.5 0 0 0 5.748.255l87.725-66.55c2.943-2.233 7.17-.134 7.17 3.56v-.258a6.75 6.75 0 0 0-3.822-6.082z"/><g filter="url(#b)"><path fill="#007acc" d="m114.178 96.34-22.253 10.714a6.727 6.727 0 0 1-7.675-1.304L11.402 39.33a4.5 4.5 0 0 1 .005-6.655l5.95-5.41a4.5 4.5 0 0 1 5.748-.255l87.725 66.55c2.943 2.233 7.17.134 7.17-3.56v.258a6.75 6.75 0 0 1-3.822 6.082z"/></g><g filter="url(#c)"><path fill="#1f9cf0" d="M91.926 107.056a6.729 6.729 0 0 1-7.676-1.306c2.49 2.491 6.75.727 6.75-2.796V5.046c0-3.523-4.26-5.287-6.75-2.796A6.73 6.73 0 0 1 91.926.943l22.249 10.7A6.75 6.75 0 0 1 118 17.726v72.548a6.75 6.75 0 0 1-3.825 6.083z"/></g><path fill="url(#d)" fill-rule="evenodd" d="M86.52 107.262a6.72 6.72 0 0 0 5.357-.205l22.235-10.7a6.751 6.751 0 0 0 3.822-6.083V17.726a6.749 6.749 0 0 0-3.822-6.083L91.877.943a6.724 6.724 0 0 0-7.672 1.307L41.638 41.085 23.097 27.01a4.495 4.495 0 0 0-5.744.256l-5.947 5.41a4.502 4.502 0 0 0-.005 6.654L27.481 54l-16.08 14.67a4.502 4.502 0 0 0 .005 6.655l5.947 5.41a4.495 4.495 0 0 0 5.743.255l18.542-14.075 42.567 38.835a6.707 6.707 0 0 0 2.314 1.512zm4.43-77.78L58.653 54l32.299 24.517V29.483Z" clip-rule="evenodd" opacity=".25" style="mix-blend-mode:overlay"/></g><defs><filter id="b" width="124.732" height="98.292" x="1.601" y="17.762" color-interpolation-filters="sRGB" filterUnits="userSpaceOnUse"><feFlood flood-opacity="0" result="BackgroundImageFix"/><feColorMatrix in="SourceAlpha" result="hardAlpha" values="0 0 0 0 0 0 0 0 0 0 0 0 0 0 0 0 0 0 127 0"/><feOffset/><feGaussianBlur stdDeviation="4.167"/><feColorMatrix values="0 0 0 0 0 0 0 0 0 0 0 0 0 0 0 0 0 0 0.25 0"/><feBlend in2="BackgroundImageFix" mode="overlay" result="effect1_dropShadow_2383_31"/><feBlend in="SourceGraphic" in2="effect1_dropShadow_2383_31" result="shape"/></filter><filter id="c" width="50.417" height="124.11" x="75.917" y="-8.055" color-interpolation-filters="sRGB" filterUnits="userSpaceOnUse"><feFlood flood-opacity="0" result="BackgroundImageFix"/><feColorMatrix in="SourceAlpha" result="hardAlpha" values="0 0 0 0 0 0 0 0 0 0 0 0 0 0 0 0 0 0 127 0"/><feOffset/><feGaussianBlur stdDeviation="4.167"/><feColorMatrix values="0 0 0 0 0 0 0 0 0 0 0 0 0 0 0 0 0 0 0.25 0"/><feBlend in2="BackgroundImageFix" mode="overlay" result="effect1_dropShadow_2383_31"/><feBlend in="SourceGraphic" in2="effect1_dropShadow_2383_31" result="shape"/></filter><linearGradient id="d" x1="63.934" x2="63.934" y1=".278" y2="107.722" gradientUnits="userSpaceOnUse"><stop stop-color="#fff"/><stop offset="1" stop-color="#fff" stop-opacity="0"/></linearGradient></defs>
	</g>

	<g id="typescript">
		<path fill="#fff" d="M22.67 47h99.67v73.67H22.67z"/><path data-name="original" fill="#007acc" d="M1.5 63.91v62.5h125v-125H1.5zm100.73-5a15.56 15.56 0 017.82 4.5 20.58 20.58 0 013 4c0 .16-5.4 3.81-8.69 5.85-.12.08-.6-.44-1.13-1.23a7.09 7.09 0 00-5.87-3.53c-3.79-.26-6.23 1.73-6.21 5a4.58 4.58 0 00.54 2.34c.83 1.73 2.38 2.76 7.24 4.86 8.95 3.85 12.78 6.39 15.16 10 2.66 4 3.25 10.46 1.45 15.24-2 5.2-6.9 8.73-13.83 9.9a38.32 38.32 0 01-9.52-.1 23 23 0 01-12.72-6.63c-1.15-1.27-3.39-4.58-3.25-4.82a9.34 9.34 0 011.15-.73L82 101l3.59-2.08.75 1.11a16.78 16.78 0 004.74 4.54c4 2.1 9.46 1.81 12.16-.62a5.43 5.43 0 00.69-6.92c-1-1.39-3-2.56-8.59-5-6.45-2.78-9.23-4.5-11.77-7.24a16.48 16.48 0 01-3.43-6.25 25 25 0 01-.22-8c1.33-6.23 6-10.58 12.82-11.87a31.66 31.66 0 019.49.26zm-29.34 5.24v5.12H56.66v46.23H45.15V69.26H28.88v-5a49.19 49.19 0 01.12-5.17C29.08 59 39 59 51 59h21.83z"/>
	</g>

	<g id="sass">
		<path fill-rule="evenodd" clip-rule="evenodd" fill="#CB6699" d="M1.219 56.156c0 .703.207 1.167.323 1.618.756 2.933 2.381 5.45 4.309 7.746 2.746 3.272 6.109 5.906 9.554 8.383 2.988 2.148 6.037 4.248 9.037 6.38.515.366 1.002.787 1.561 1.236-.481.26-.881.489-1.297.7-3.959 2.008-7.768 4.259-11.279 6.986-2.116 1.644-4.162 3.391-5.607 5.674-2.325 3.672-3.148 7.584-1.415 11.761.506 1.22 1.278 2.274 2.367 3.053.353.252.749.502 1.162.6 1.058.249 2.136.412 3.207.609l3.033-.002c3.354-.299 6.407-1.448 9.166-3.352 4.312-2.976 7.217-6.966 8.466-12.087.908-3.722.945-7.448-.125-11.153a11.696 11.696 0 00-.354-1.014c-.13-.333-.283-.657-.463-1.072l6.876-3.954.103.088c-.125.409-.258.817-.371 1.23-.817 2.984-1.36 6.02-1.165 9.117.208 3.3 1.129 6.389 3.061 9.146 1.562 2.23 5.284 2.313 6.944.075.589-.795 1.16-1.626 1.589-2.513 1.121-2.315 2.159-4.671 3.23-7.011l.187-.428c-.077 1.108-.167 2.081-.208 3.055-.064 1.521.025 3.033.545 4.48.445 1.238 1.202 2.163 2.62 2.326.97.111 1.743-.333 2.456-.896a10.384 10.384 0 002.691-3.199c1.901-3.491 3.853-6.961 5.576-10.54 1.864-3.871 3.494-7.855 5.225-11.792l.286-.698c.409 1.607.694 3.181 1.219 4.671.61 1.729 1.365 3.417 2.187 5.058.389.775.344 1.278-.195 1.928-2.256 2.72-4.473 5.473-6.692 8.223-.491.607-.98 1.225-1.389 1.888a3.701 3.701 0 00-.48 1.364 1.737 1.737 0 001.383 1.971 9.661 9.661 0 002.708.193c3.097-.228 5.909-1.315 8.395-3.157 3.221-2.386 4.255-5.642 3.475-9.501-.211-1.047-.584-2.065-.947-3.074-.163-.455-.174-.774.123-1.198 2.575-3.677 4.775-7.578 6.821-11.569.081-.157.164-.314.306-.482.663 3.45 1.661 6.775 3.449 9.792-.912.879-1.815 1.676-2.632 2.554-1.799 1.934-3.359 4.034-4.173 6.595-.35 1.104-.619 2.226-.463 3.405.242 1.831 1.742 3.021 3.543 2.604 3.854-.892 7.181-2.708 9.612-5.925 1.636-2.166 1.785-4.582 1.1-7.113-.188-.688-.411-1.365-.651-2.154.951-.295 1.878-.649 2.837-.868 4.979-1.136 9.904-.938 14.702.86 2.801 1.05 5.064 2.807 6.406 5.571 1.639 3.379.733 6.585-2.452 8.721-.297.199-.637.356-.883.605a.869.869 0 00-.205.67c.021.123.346.277.533.275 1.047-.008 1.896-.557 2.711-1.121 2.042-1.413 3.532-3.314 3.853-5.817l.063-.188-.077-1.63c-.031-.094.023-.187.016-.258-.434-3.645-2.381-6.472-5.213-8.688-3.28-2.565-7.153-3.621-11.249-3.788a25.401 25.401 0 00-9.765 1.503c-.897.325-1.786.71-2.688 1.073-.121-.219-.251-.429-.358-.646-.926-1.896-2.048-3.708-2.296-5.882-.176-1.544-.392-3.086-.025-4.613.353-1.469.813-2.913 1.246-4.362.223-.746.066-1.164-.646-1.5a2.854 2.854 0 00-.786-.258c-1.75-.254-3.476-.109-5.171.384-.6.175-1.036.511-1.169 1.175-.076.381-.231.746-.339 1.122-.443 1.563-.757 3.156-1.473 4.645-1.794 3.735-3.842 7.329-5.938 10.897-.227.385-.466.763-.752 1.23-.736-1.54-1.521-2.922-1.759-4.542-.269-1.832-.481-3.661-.025-5.479.339-1.356.782-2.687 1.19-4.025.193-.636.104-.97-.472-1.305-.291-.169-.62-.319-.948-.368a11.643 11.643 0 00-5.354.438c-.543.176-.828.527-.994 1.087-.488 1.652-.904 3.344-1.589 4.915-2.774 6.36-5.628 12.687-8.479 19.013-.595 1.321-1.292 2.596-1.963 3.882-.17.326-.418.613-.63.919-.17-.201-.236-.339-.235-.477.005-.813-.092-1.65.063-2.436a172.189 172.189 0 011.578-7.099c.47-1.946 1.017-3.874 1.538-5.807.175-.647.178-1.252-.287-1.796-.781-.911-2.413-1.111-3.381-.409l-.428.242.083-.69c.204-1.479.245-2.953-.161-4.41-.506-1.816-1.802-2.861-3.686-2.803-.878.027-1.8.177-2.613.497-3.419 1.34-6.048 3.713-8.286 6.568a2.592 2.592 0 01-.757.654c-2.893 1.604-5.795 3.188-8.696 4.778l-3.229 1.769c-.866-.826-1.653-1.683-2.546-2.41-2.727-2.224-5.498-4.393-8.244-6.592-2.434-1.949-4.792-3.979-6.596-6.56-1.342-1.92-2.207-4.021-2.29-6.395-.105-3.025.753-5.789 2.293-8.362 1.97-3.292 4.657-5.934 7.611-8.327 3.125-2.53 6.505-4.678 10.008-6.639 4.901-2.743 9.942-5.171 15.347-6.774 5.542-1.644 11.165-2.585 16.965-1.929 2.28.258 4.494.78 6.527 1.895 1.557.853 2.834 1.97 3.428 3.716.586 1.718.568 3.459.162 5.204-.825 3.534-2.76 6.447-5.195 9.05-3.994 4.267-8.866 7.172-14.351 9.091a39.478 39.478 0 01-9.765 2.083c-2.729.229-5.401-.013-7.985-.962-1.711-.629-3.201-1.591-4.399-2.987-.214-.25-.488-.521-.887-.287-.391.23-.46.602-.329.979.219.626.421 1.278.762 1.838.857 1.405 2.107 2.424 3.483 3.298 2.643 1.681 5.597 2.246 8.66 2.377 4.648.201 9.183-.493 13.654-1.74 6.383-1.78 11.933-4.924 16.384-9.884 3.706-4.13 6.353-8.791 6.92-14.419.277-2.747-.018-5.438-1.304-7.944-1.395-2.715-3.613-4.734-6.265-6.125C68.756 18.179 64.588 17 60.286 17h-4.31c-5.21 0-10.247 1.493-15.143 3.274-3.706 1.349-7.34 2.941-10.868 4.703-7.683 3.839-14.838 8.468-20.715 14.833-2.928 3.171-5.407 6.67-6.833 10.79a40.494 40.494 0 00-1.111 3.746m27.839 36.013c-.333 4.459-2.354 8.074-5.657 11.002-1.858 1.646-3.989 2.818-6.471 3.23-.9.149-1.821.185-2.694-.188-1.245-.532-1.524-1.637-1.548-2.814-.037-1.876.62-3.572 1.521-5.186 1.176-2.104 2.9-3.708 4.741-5.206 2.9-2.361 6.046-4.359 9.268-6.245l.243-.1c.498 1.84.735 3.657.597 5.507zM54.303 70.98c-.235 1.424-.529 2.849-.945 4.229-1.438 4.777-3.285 9.406-5.282 13.973-.369.845-.906 1.616-1.373 2.417a1.689 1.689 0 01-.283.334c-.578.571-1.126.541-1.418-.206-.34-.868-.549-1.797-.729-2.716-.121-.617-.092-1.265-.13-1.897.039-4.494 1.41-8.578 3.736-12.38.959-1.568 2.003-3.062 3.598-4.054a6.27 6.27 0 011.595-.706c.85-.239 1.372.154 1.231 1.006zm17.164 21.868l6.169-7.203c.257 2.675-4.29 8.015-6.169 7.203zm19.703-4.847c-.436.25-.911.43-1.358.661-.409.212-.544-.002-.556-.354a2.385 2.385 0 01.093-.721c.833-2.938 2.366-5.446 4.647-7.486l.16-.082c1.085 3.035-.169 6.368-2.986 7.982z"/>
	</g>

	<g id="redux">
		<path fill="#764abc" d="M88.69 88.11c-9 18.4-24.76 30.78-45.61 34.85a39.73 39.73 0 0 1-9.77 1.14c-12 0-23-5-28.34-13.19C-2.2 100-4.64 76.87 19 59.76c.48 2.61 1.46 6.19 2.11 8.31A38.24 38.24 0 0 0 10 81.1c-4.4 8.64-3.91 17.27 1.3 25.25 3.6 5.38 9.3 8.65 16.63 9.65a44 44 0 0 0 26.55-5c12.71-6.68 21.18-14.66 26.72-25.57a9.32 9.32 0 0 1-2.61-6A9.12 9.12 0 0 1 87.37 70h.34a9.15 9.15 0 0 1 1 18.25zm28.67-20.2c12.21 13.84 12.54 30.13 7.82 39.58-4.4 8.63-16 17.27-31.6 17.27a50.48 50.48 0 0 1-21-5.05c2.29-1.63 5.54-4.24 7.33-5.87a41.54 41.54 0 0 0 16 3.42c10.1 0 17.75-4.72 22.31-13.35 2.93-5.7 3.1-12.38.33-19.22a43.61 43.61 0 0 0-17.27-20.85 62 62 0 0 0-34.74-10.59h-2.93a9.21 9.21 0 0 1-8 5.54h-.31a9.13 9.13 0 0 1-.3-18.25h.33a9 9 0 0 1 8 4.89h2.61c20.8 0 39.06 7.98 51.42 22.48zm-82.75 23a7.31 7.31 0 0 1 1.14-4.73c-9.12-15.8-14-35.83-6.51-56.68C34.61 13.83 48.13 3.24 62.79 3.24c15.64 0 31.93 13.69 33.88 40.07-2.44-.81-6-2-8.14-2.44-.53-8.63-7.82-30.13-25.09-29.81-6.19.17-15.31 3.1-20 9.12a43.69 43.69 0 0 0-9.64 25.25 59.61 59.61 0 0 0 8.47 36.16 2.75 2.75 0 0 1 1.14-.16h.32a9.121 9.121 0 0 1 .33 18.24h-.33a9.16 9.16 0 0 1-9.12-8.79z"/>
	</g>

	<g id="react">
		<g fill="#61DAFB"><circle cx="64" cy="47.5" r="9.3"/><path d="M64 81.7C71.3 88.8 78.5 93 84.3 93c1.9 0 3.7-.4 5.2-1.3 5.2-3 7.1-10.5 5.3-21.2-.3-1.9-.7-3.8-1.2-5.8 2-.6 3.8-1.2 5.6-1.8 10.1-3.9 15.7-9.3 15.7-15.2 0-6-5.6-11.4-15.7-15.2-1.8-.7-3.6-1.3-5.6-1.8.5-2 .9-3.9 1.2-5.8 1.7-10.9-.2-18.5-5.4-21.5-1.5-.9-3.3-1.3-5.2-1.3-5.7 0-13 4.2-20.3 11.3C56.7 6.3 49.5 2.1 43.7 2.1c-1.9 0-3.7.4-5.2 1.3-5.2 3-7.1 10.5-5.3 21.2.3 1.9.7 3.8 1.2 5.8-2 .6-3.8 1.2-5.6 1.8-10.1 3.9-15.7 9.3-15.7 15.2 0 6 5.6 11.4 15.7 15.2 1.8.7 3.6 1.3 5.6 1.8-.5 2-.9 3.9-1.2 5.8-1.7 10.7.2 18.3 5.3 21.2 1.5.9 3.3 1.3 5.2 1.3 5.8.2 13-4 20.3-11zm-5.6-13.5c1.8.1 3.7.1 5.6.1 1.9 0 3.8 0 5.6-.1-1.8 2.4-3.7 4.6-5.6 6.7-1.9-2.1-3.8-4.3-5.6-6.7zM46 57.9c1 1.7 1.9 3.3 3 4.9-3.1-.4-6-.9-8.8-1.5.9-2.7 1.9-5.5 3.1-8.3.8 1.6 1.7 3.3 2.7 4.9zm-5.8-24.1c2.8-.6 5.7-1.1 8.8-1.5-1 1.6-2 3.2-3 4.9-1 1.7-1.9 3.3-2.7 5-1.3-2.9-2.3-5.7-3.1-8.4zm5.5 13.7c1.3-2.7 2.7-5.4 4.3-8.1 1.5-2.6 3.2-5.2 4.9-7.8 3-.2 6-.3 9.1-.3 3.2 0 6.2.1 9.1.3 1.8 2.6 3.4 5.2 4.9 7.8 1.6 2.7 3 5.4 4.3 8.1-1.3 2.7-2.7 5.4-4.3 8.1-1.5 2.6-3.2 5.2-4.9 7.8-3 .2-6 .3-9.1.3-3.2 0-6.2-.1-9.1-.3-1.8-2.6-3.4-5.2-4.9-7.8-1.6-2.7-3-5.4-4.3-8.1zm39.1-5.4l-2.7-5c-1-1.7-1.9-3.3-3-4.9 3.1.4 6 .9 8.8 1.5-.9 2.8-1.9 5.6-3.1 8.4zm0 10.8c1.2 2.8 2.2 5.6 3.1 8.3-2.8.6-5.7 1.1-8.8 1.5 1-1.6 2-3.2 3-4.9.9-1.5 1.8-3.2 2.7-4.9zm2.3 34.7c-.8.5-1.8.7-2.9.7-4.9 0-11-4-17-10 2.9-3.1 5.7-6.6 8.5-10.5 4.7-.4 9.2-1.1 13.4-2.1.5 1.8.8 3.6 1.1 5.4 1.4 8.5.3 14.6-3.1 16.5zm5.2-52.7c11.2 3.2 17.9 8.1 17.9 12.6 0 3.9-4.6 7.8-12.7 10.9-1.6.6-3.4 1.2-5.2 1.7-1.3-4.1-2.9-8.3-4.9-12.6 2-4.3 3.7-8.5 4.9-12.6zm-8-28.2c1.1 0 2 .2 2.9.7 3.3 1.9 4.5 7.9 3.1 16.5-.3 1.7-.7 3.5-1.1 5.4-4.2-.9-8.7-1.6-13.4-2.1-2.7-3.9-5.6-7.4-8.5-10.5 6-5.9 12.1-10 17-10zM69.6 26.8c-1.8-.1-3.7-.1-5.6-.1s-3.8 0-5.6.1c1.8-2.4 3.7-4.6 5.6-6.7 1.9 2.1 3.8 4.4 5.6 6.7zM40.9 7.4c.8-.5 1.8-.7 2.9-.7 4.9 0 11 4 17 10-2.9 3.1-5.7 6.6-8.5 10.5-4.7.4-9.2 1.1-13.4 2.1-.5-1.8-.8-3.6-1.1-5.4-1.4-8.5-.3-14.5 3.1-16.5zm-5.2 52.7C24.5 56.9 17.8 52 17.8 47.5c0-3.9 4.6-7.8 12.7-10.9 1.6-.6 3.4-1.2 5.2-1.7 1.3 4.1 2.9 8.3 4.9 12.6-2 4.3-3.7 8.6-4.9 12.6zm2.1 11c.3-1.7.7-3.5 1.1-5.4 4.2.9 8.7 1.6 13.4 2.1 2.7 3.9 5.6 7.4 8.5 10.5-6 5.9-12.1 10-17 10-1.1 0-2-.2-2.9-.7-3.4-1.9-4.5-8-3.1-16.5zm-4.2 41.2c2.2-2.7 2.3-5.7 1.1-8.7-1.2-3-3.7-4.4-6.8-4.5-3.7-.1-7.5 0-11.2 0H16V125h3v-9.8h4.7c.6 0 1.1.2 1.4.7l6 9.3c.1.2.4.5.6.5h3.9c-2.4-3.7-4.7-7.2-7.1-10.8 2.1-.3 3.9-1 5.1-2.6zm-14.6-.2v-9.9h1.1c2.3 0 4.7-.1 7 .1 2.7.1 4.6 2.2 4.6 4.9s-2.2 4.8-4.9 4.9c-2.4.1-4.8 0-7.8 0zm38.7 1.3c-1.6-7-8-8.8-12.9-6.6-3.8 1.7-5.5 5-5.6 9.1-.1 3.1.8 5.9 3.2 8 2.7 2.4 6 2.7 9.4 2.1 1.9-.4 3.6-1.3 4.9-2.7-.5-.7-1-1.4-1.5-2-2.8 2.4-5.9 3.2-9.3 1.6-2.2-1.1-3.3-3.8-3.5-5.8h15.5v-1.3c.1-.9 0-1.7-.2-2.4zM42.6 115c-.3-3 2.7-6.2 6-6.2 3.8-.1 6.2 2.2 6.3 6.2H42.6zm30.7-8.7c-1.5-.3-3.1-.4-4.6-.3-2.4.2-4.5 1.3-6.2 3.1.5.7.9 1.4 1.5 2.2.2-.2.4-.4.6-.5 1.6-1.5 3.5-2.3 5.8-2.1 1.8.1 3.5.7 4 2.5.4 1.4.3 2.9.4 4.4-.3 0-.4-.1-.5-.2-2.4-2-5.1-2.4-8-1.7-2.7.7-4.4 2.8-4.6 5.5-.2 3.1 1.2 5.4 3.9 6.5 1.7.7 3.6.7 5.4.3 1.4-.3 2-1.1 4-2.2v1.3h2.8c0-4 .1-8.9 0-13.5 0-2.9-1.7-4.7-4.5-5.3zm1.4 12.6c-.1.3 0 .6 0 .9 0 2.1-.5 2.8-2.5 3.6-1.4.5-2.9.7-4.4.2-1.7-.5-2.9-2-2.9-3.7-.1-1.7 1-3.4 2.7-3.9 2.3-.8 4.4-.3 6.3 1.1.6.5 1 1 .8 1.8zm15.6-9.9c2.6-.8 5-.3 6.8 1.9l.3.2c.7-.6 1.3-1.2 2.1-1.9-.3-.3-.4-.5-.6-.8-2.9-3.1-8.6-3.5-12.1-1-4.9 3.6-4.8 10.6-2.4 14.3 2.3 3.5 5.6 4.7 9.5 4.2 2.3-.3 4.2-1.4 5.7-3.3-.7-.6-1.4-1.2-2.1-1.9-.2.2-.3.3-.4.5-2.7 3-7.2 2.7-9.6-.5-1.4-1.9-1.7-4.1-1.3-6.3.2-2.5 1.5-4.5 4.1-5.4zm20.8 13.6c-.2.1-.3.2-.3.2-.8.6-1.6.7-2.5.4-.9-.4-1-1.2-1.1-2v-11.4c0-.2 0 .2.1-.8h3.8v-3h-4v-5h-3v5.4h-2.6c-.2 0-.5.2-.5.4-.1.7 0 1.2 0 2.2h3.2v12.8c0 1.6.4 3 1.8 3.8 1.5.9 4.4.7 5.7-.4.2-.1.3-.5.3-.6-.3-.6-.6-1.3-.9-2z"/></g>
	</g>

	<g id="mysql">
		<path fill="#00618A" d="M0 91.313h4.242V74.566l6.566 14.598c.773 1.77 1.832 2.391 3.914 2.391s3.098-.621 3.871-2.391l6.566-14.598v16.746h4.242V74.594c0-1.633-.652-2.422-2-2.828-3.223-1.004-5.383-.137-6.363 2.039l-6.441 14.41-6.238-14.41c-.937-2.176-3.14-3.043-6.359-2.039-1.348.406-2 1.195-2 2.828zM32.93 77.68h4.238v9.227c-.039.5.16 1.676 2.484 1.715h9.223V77.633h4.25c.02 0-.008 14.984-.008 15.047.023 3.695-4.582 4.496-6.707 4.559H33.02v-2.852l13.414-.004c2.73-.285 2.406-1.645 2.406-2.098v-1.113h-9.012c-4.195-.039-6.863-1.871-6.898-3.977-.004-.191.09-9.422 0-9.516zm0 0"/><path fill="#E48E00" d="M56.391 91.313h12.195c1.426 0 2.813-.301 3.914-.816 1.836-.84 2.73-1.984 2.73-3.48v-3.098c0-1.223-1.016-2.367-3.016-3.125-1.059-.41-2.367-.625-3.629-.625h-5.141c-1.711 0-2.527-.516-2.73-1.656-.039-.137-.039-.246-.039-.383V76.2c0-.109 0-.219.039-.355.203-.867.652-1.113 2.16-1.25l.41-.027h12.109v-2.824H63.488c-1.711 0-2.609.109-3.426.352-2.527.789-3.629 2.039-3.629 4.215v2.473c0 1.902 2.16 3.535 5.789 3.914l1.223.055h4.406c.164 0 .324 0 .449.027 1.344.109 1.914.355 2.324.844.211.195.332.473.324.758v2.477c0 .297-.203.68-.609 1.004-.367.328-.98.543-1.793.598l-.449.027H56.391zm45.297-4.922c0 2.91 2.164 4.539 6.523 4.867l1.227.055h11.051v-2.828h-11.133c-2.488 0-3.426-.625-3.426-2.121V71.738h-4.238V86.39zm-23.75.148V76.457c0-2.559 1.801-4.113 5.355-4.602a7.976 7.976 0 0 1 1.145-.082h8.047c.41 0 .777.027 1.188.082 3.555.488 5.352 2.043 5.352 4.602v10.082c0 2.078-.762 3.188-2.523 3.914l4.18 3.77h-4.926l-3.379-3.051-3.402.215H84.44a9.23 9.23 0 0 1-2.492-.352c-2.699-.734-4.008-2.152-4.008-4.496zm4.578-.246c0 .137.039.273.082.438.246 1.172 1.348 1.824 3.023 1.824h3.852l-3.539-3.195h4.926l3.086 2.789c.57-.305.941-.766 1.074-1.363.039-.137.039-.273.039-.41v-9.668c0-.109 0-.246-.039-.383-.246-1.09-1.348-1.715-2.984-1.715h-6.414c-1.879 0-3.105.816-3.105 2.098zm0 0"/><path fill="#00618A" d="M124.219 67.047c-2.605-.07-4.598.172-6.301.891-.484.203-1.258.207-1.336.813.266.281.309.699.52 1.039.406.66 1.094 1.539 1.707 2l2.074 1.484c1.273.777 2.699 1.223 3.93 2 .723.461 1.441 1.039 2.148 1.559.348.254.582.656 1.039.816v-.074c-.238-.305-.301-.723-.52-1.039l-.965-.965c-.941-1.25-2.137-2.348-3.41-3.262-1.016-.727-3.281-1.711-3.707-2.891l-.074-.074c.719-.078 1.563-.34 2.223-.516 1.117-.301 2.113-.223 3.262-.52l1.559-.449v-.293c-.582-.598-.996-1.387-1.633-1.93-1.656-1.41-3.469-2.824-5.336-4.004-1.035-.652-2.312-1.074-3.41-1.629-.367-.187-1.016-.281-1.262-.594-.574-.734-.887-1.664-1.332-2.52l-2.668-5.633c-.562-1.285-.93-2.555-1.633-3.707-3.363-5.535-6.988-8.875-12.602-12.156-1.191-.699-2.633-.973-4.148-1.332l-2.449-.148c-.496-.211-1.012-.82-1.48-1.113-1.859-1.176-6.629-3.73-8.008-.371-.867 2.121 1.301 4.191 2.078 5.266.543.754 1.242 1.598 1.629 2.445.258.555.301 1.113.52 1.703.539 1.453 1.008 3.031 1.707 4.375.352.68.738 1.395 1.184 2 .273.371.742.539.816 1.113-.457.641-.484 1.633-.742 2.445-1.16 3.652-.723 8.191.965 10.898.516.828 1.734 2.609 3.41 1.926 1.465-.598 1.137-2.445 1.555-4.078.098-.367.039-.641.223-.887v.074l1.336 2.668c.988 1.59 2.738 3.25 4.223 4.371.773.582 1.379 1.59 2.375 1.93V68.6h-.074c-.195-.297-.496-.422-.742-.664-.582-.57-1.227-1.277-1.703-1.93-1.352-1.832-2.547-3.84-3.633-5.93-.52-.996-.973-2.098-1.41-3.113-.168-.391-.164-.984-.516-1.184-.48.742-1.187 1.344-1.559 2.223-.594 1.402-.668 3.117-.891 4.891l-.148.074c-1.031-.25-1.395-1.312-1.777-2.223-.973-2.305-1.152-6.02-.297-8.672.219-.687 1.219-2.852.813-3.484-.191-.633-.828-1-1.184-1.484a11.7 11.7 0 0 1-1.187-2.074c-.793-1.801-1.164-3.816-2-5.633-.398-.871-1.074-1.75-1.629-2.523-.617-.855-1.305-1.484-1.781-2.52-.168-.367-.398-.957-.148-1.336.078-.254.195-.359.445-.441.43-.332 1.629.109 2.074.293 1.191.496 2.184.965 3.191 1.633.48.32.969.941 1.555 1.113h.668c1.043.238 2.211.07 3.188.367 1.723.523 3.27 1.34 4.668 2.227 4.273 2.695 7.766 6.535 10.156 11.117.387.738.551 1.441.891 2.223.684 1.578 1.543 3.203 2.223 4.746s1.34 3.094 2.297 4.375c.504.672 2.453 1.031 3.336 1.406.621.262 1.637.535 2.223.891 1.125.676 2.211 1.48 3.266 2.223.523.375 2.141 1.188 2.223 1.855zM91.082 38.805a5.26 5.26 0 0 0-1.332.148v.074h.074c.258.535.715.879 1.035 1.336l.742 1.555.074-.07c.461-.324.668-.844.668-1.633-.187-.195-.211-.437-.371-.668-.211-.309-.621-.48-.891-.742zm0 0"/>
	</g>

	<g id="javascript">
		<path fill="#F0DB4F" d="M1.408 1.408h125.184v125.185H1.408z"/><path fill="#323330" d="M116.347 96.736c-.917-5.711-4.641-10.508-15.672-14.981-3.832-1.761-8.104-3.022-9.377-5.926-.452-1.69-.512-2.642-.226-3.665.821-3.32 4.784-4.355 7.925-3.403 2.023.678 3.938 2.237 5.093 4.724 5.402-3.498 5.391-3.475 9.163-5.879-1.381-2.141-2.118-3.129-3.022-4.045-3.249-3.629-7.676-5.498-14.756-5.355l-3.688.477c-3.534.893-6.902 2.748-8.877 5.235-5.926 6.724-4.236 18.492 2.975 23.335 7.104 5.332 17.54 6.545 18.873 11.531 1.297 6.104-4.486 8.08-10.234 7.378-4.236-.881-6.592-3.034-9.139-6.949-4.688 2.713-4.688 2.713-9.508 5.485 1.143 2.499 2.344 3.63 4.26 5.795 9.068 9.198 31.76 8.746 35.83-5.176.165-.478 1.261-3.666.38-8.581zM69.462 58.943H57.753l-.048 30.272c0 6.438.333 12.34-.714 14.149-1.713 3.558-6.152 3.117-8.175 2.427-2.059-1.012-3.106-2.451-4.319-4.485-.333-.584-.583-1.036-.667-1.071l-9.52 5.83c1.583 3.249 3.915 6.069 6.902 7.901 4.462 2.678 10.459 3.499 16.731 2.059 4.082-1.189 7.604-3.652 9.448-7.401 2.666-4.915 2.094-10.864 2.07-17.444.06-10.735.001-21.468.001-32.237z"/>
	</g>

	<g id="html">
		<path fill="#E44D26" d="M27.854 116.354l-8.043-90.211h88.378l-8.051 90.197-36.192 10.033z"/><path fill="#F16529" d="M64 118.704l29.244-8.108 6.881-77.076H64z"/><path fill="#EBEBEB" d="M64 66.978H49.359l-1.01-11.331H64V44.583H36.257l.264 2.969 2.72 30.489H64zm0 28.733l-.049.013-12.321-3.328-.788-8.823H39.735l1.55 17.372 22.664 6.292.051-.015z"/><path d="M28.034 1.627h5.622v5.556H38.8V1.627h5.623v16.822H38.8v-5.633h-5.143v5.633h-5.623V1.627zm23.782 5.579h-4.95V1.627h15.525v5.579h-4.952v11.243h-5.623V7.206zm13.039-5.579h5.862l3.607 5.911 3.603-5.911h5.865v16.822h-5.601v-8.338l-3.867 5.981h-.098l-3.87-5.981v8.338h-5.502V1.627zm21.736 0h5.624v11.262h7.907v5.561H86.591V1.627z"/><path fill="#fff" d="M63.962 66.978v11.063h13.624L76.302 92.39l-12.34 3.331v11.51l22.682-6.286.166-1.87 2.6-29.127.27-2.97h-2.982zm0-22.395v11.064h26.725l.221-2.487.505-5.608.265-2.969z"/>
	</g>

	<g id="git">
		<path fill="#31251C" d="M76.397 55.676c-2.737 0-4.775 1.344-4.775 4.579 0 2.437 1.343 4.129 4.628 4.129 2.784 0 4.676-1.641 4.676-4.23 0-2.934-1.693-4.478-4.529-4.478zm-5.471 22.84c-.648.795-1.294 1.64-1.294 2.637 0 1.989 2.536 2.587 6.021 2.587 2.885 0 6.816-.202 6.816-2.885 0-1.595-1.892-1.693-4.281-1.843l-7.262-.496zm14.725-22.69c.895 1.145 1.842 2.737 1.842 5.026 0 5.522-4.329 8.756-10.597 8.756-1.594 0-3.037-.198-3.932-.447l-1.642 2.637 4.875.297c8.608.549 13.682.798 13.682 7.413 0 5.723-5.024 8.955-13.682 8.955-9.006 0-12.438-2.289-12.438-6.218 0-2.24.996-3.431 2.737-5.076-1.643-.694-2.189-1.937-2.189-3.281 0-1.095.547-2.09 1.443-3.036.896-.944 1.891-1.891 3.084-2.985-2.438-1.194-4.278-3.781-4.278-7.464 0-5.721 3.781-9.65 11.393-9.65 2.14 0 3.435.197 4.578.498h9.703v4.228l-4.579.347zm13.332-9.04c-2.837 0-4.479-1.643-4.479-4.48 0-2.833 1.642-4.377 4.479-4.377 2.886 0 4.527 1.543 4.527 4.377.001 2.837-1.641 4.48-4.527 4.48zm-6.42 29.9v-3.929l2.539-.348c.696-.1.795-.249.795-.997V56.785c0-.546-.148-.896-.647-1.044l-2.687-.946.547-4.028h10.301v20.646c0 .798.048.896.796.997l2.538.348v3.929H92.563v-.001zm33.857-1.93c-2.141 1.043-5.274 1.99-8.112 1.99-5.92 0-8.158-2.386-8.158-8.011V55.7c0-.297 0-.497-.399-.497h-3.482v-4.428c4.38-.499 6.12-2.688 6.667-8.111h4.728v7.067c0 .347 0 .498.398.498h7.015v4.975h-7.413v11.89c0 2.935.697 4.079 3.383 4.079 1.395 0 2.836-.347 4.03-.795l1.343 4.378z"/><path fill="#F34F29" d="M52.7 61.7L29.951 38.952a3.355 3.355 0 00-4.744 0l-4.724 4.724 5.991 5.992a3.983 3.983 0 014.1.956 3.988 3.988 0 01.947 4.125l5.775 5.775a3.988 3.988 0 014.125 6.593 3.992 3.992 0 01-6.516-4.342l-5.386-5.386-.001 14.174a3.992 3.992 0 011.056 6.401 3.993 3.993 0 11-4.339-6.518V57.141a3.99 3.99 0 01-2.167-5.236l-5.906-5.908L2.563 61.595a3.356 3.356 0 000 4.747L25.312 89.09a3.357 3.357 0 004.746 0L52.7 66.446a3.355 3.355 0 000-4.746z"/><path fill="none" d="M1.58 37.928h124.84v52.143H1.58z"/>
	</g>
	
	<g id="docker">
		<path fill-rule="evenodd" clip-rule="evenodd" fill="#3A4D54" d="M20 96.9v-8.1c0-1.1.7-1.9 1.8-1.9h.3c1.1 0 1.8.9 1.8 1.9v17c0 4.1-2 7.4-5.6 9.5-1.7 1-3.5 1.5-5.4 1.5h-.8c-4.1 0-7.4-2-9.5-5.6-1-1.7-1.5-3.5-1.5-5.4v-.8c0-4.1 2-7.4 5.6-9.5 1.7-1 3.5-1.5 5.4-1.5h.8c2.7.1 5.1 1.1 7.1 2.9zm-15.1 8.5c0 3 1.5 5.2 4.1 6.7 1.1.6 2.2.9 3.4.9 2.9 0 5.1-1.4 6.6-3.9.7-1.2 1-2.4 1-3.8 0-2.6-1.2-4.6-3.3-6.1-1.3-.9-2.7-1.4-4.2-1.4-3.2 0-5.5 1.6-6.9 4.5-.5 1-.7 2.1-.7 3.1zm32.2-11.3h.5c4.4 0 7.8 2.1 9.9 6 .9 1.5 1.3 3.2 1.3 5v.8c0 4.1-2 7.4-5.6 9.5-1.7 1-3.5 1.5-5.4 1.5H37c-4.1 0-7.4-2-9.5-5.6-1-1.7-1.5-3.5-1.5-5.4v-.8c0-4.1 2.1-7.4 5.6-9.5 1.7-1.1 3.6-1.5 5.5-1.5zm-7.2 11.3c0 2.9 1.4 5 3.9 6.5 1.2.7 2.4 1 3.8 1 2.9 0 5-1.5 6.5-3.9.7-1.2 1-2.4 1-3.8 0-2.7-1.3-4.8-3.5-6.3-1.2-.8-2.6-1.2-4-1.2-3.2 0-5.5 1.6-6.9 4.5-.6 1.1-.8 2.2-.8 3.2zm34.8-7.2c-.6-.3-1.7-.4-2.3-.4-3.2-.1-5.5 1.7-6.9 4.5-.5 1-.7 2-.7 3.1 0 3.3 1.7 5.6 4.6 7 1.1.5 2.4.6 3.6.6 1 0 2.5-.6 3.4-1.1l.2-.1h.8c.9.2 1.5.7 1.5 1.7v.4c0 2.3-4.3 2.9-5.9 3-5.7.4-10-2.7-11.6-8.2-.3-.9-.4-1.9-.4-2.9v-.8c0-4.1 2.1-7.4 5.6-9.5 1.7-1 3.5-1.5 5.4-1.5h.8c2 0 3.9.6 5.6 1.7l.1.1.1.1c.2.3.3.6.3 1v.4c0 1-.7 1.5-1.6 1.7H67c-.5 0-1.8-.6-2.3-.8zm12.4 2.6c1.5-1.5 3-3 4.5-4.4.4-.4 2-2.1 2.6-2.1h.8c.9.2 1.5.7 1.5 1.7v.4c0 .6-.7 1.4-1.2 1.8l-2.7 2.7-4.6 4.7c2 2 4 4 5.9 6l1.6 1.7c.2.2.5.4.6.7.2.3.3.6.3.9v.5c-.2.9-.8 1.6-1.7 1.6h-.3c-.6 0-1.3-.7-1.8-1.1-.9-.8-1.8-1.7-2.6-2.6l-2.9-2.9v4.6c0 1.1-.7 1.9-1.8 1.9H75c-1.1 0-1.8-.9-1.8-1.9V88.9c0-1.1.7-1.9 1.8-1.9h.3c1.1 0 1.8.8 1.8 1.9v11.9zm47.6-6.6h.4c1.1 0 1.9.8 1.9 1.9 0 1.6-1.5 2-2.8 2-1.7 0-3.4 1-4.5 2.2-1.5 1.5-2.1 3.3-2.1 5.4v9.2c0 1.1-.7 1.9-1.8 1.9h-.3c-1.1 0-1.8-.9-1.8-1.9v-9.8c0-3.8 1.8-6.8 4.9-9 1.8-1.2 3.9-1.9 6.1-1.9zm-27.1 18.3c1.4.5 3 .4 4.4.2.7-.3 2.6-1.1 3.3-1h.2c.4.2.8.5 1 .9.5 1 .3 2-.7 2.6l-.3.2c-3.6 2.1-7.5 1.8-11.1-.2-1.7-.9-3-2.3-4-4l-.2-.4c-2.3-4-2-8.3.6-12.1.9-1.3 2.1-2.3 3.5-3.1l.5-.3c3.4-2 7.1-1.8 10.6-.1 1.9.9 3.4 2.3 4.5 4.1l.2.3c.8 1.3-.2 2.5-1.2 3.3-1.2.9-2.4 2-3.5 3-2.7 2.2-5.3 4.4-7.8 6.6zm-3.3-2.3l8.5-7.3c1-.8 2-1.7 3-2.6-.8-1-2.1-1.7-3.1-2.1-2.2-.8-4.4-.6-6.4.6-2.6 1.5-3.8 4-3.7 7 0 1.2.4 2.3 1 3.4.2.4.4.7.7 1M73.7 33.7H85v11.5h5.7c2.6 0 5.3-.5 7.8-1.3 1.2-.4 2.6-1 3.8-1.7-1.6-2.1-2.4-4.7-2.6-7.3-.3-3.5.4-8.1 2.8-10.8l1.2-1.4 1.4 1.1c3.6 2.9 6.5 6.8 7.1 11.4 4.3-1.3 9.3-1 13.1 1.2l1.5.9-.8 1.6c-3.2 6.2-9.9 8.2-16.4 7.8-9.8 24.3-31 35.8-56.8 35.8-13.3 0-25.5-5-32.5-16.8l-.1-.2-1-2.1c-2.4-5.2-3.1-10.9-2.6-16.6l.2-1.7h9.6V33.7h11.3V22.4h22.5V11.1h13.5v22.6z"/><path fill="#00AADA" d="M110.2 37.9c.8-5.9-3.6-10.5-6.4-12.7-3.1 3.6-3.6 13.2 1.3 17.2-2.8 2.4-8.5 4.7-14.5 4.7H18.4c-.6 6.2.5 11.9 3 16.8l.8 1.5c.5.9 1.1 1.7 1.7 2.6 3 .2 5.7.3 8.2.2 4.9-.1 8.9-.7 12-1.7.5-.2.9.1 1.1.5.2.5-.1.9-.5 1.1-.4.1-.8.3-1.3.4-2.4.7-5 1.1-8.3 1.3h-.6c-1.3.1-2.7.1-4.2.1-1.6 0-3.1 0-4.9-.1 6 6.8 15.4 10.8 27.2 10.8 25 0 46.2-11.1 55.5-35.9 6.7.7 13.1-1 16-6.7-4.5-2.6-10.5-1.8-13.9-.1z"/><path fill="#28B8EB" d="M110.2 37.9c.8-5.9-3.6-10.5-6.4-12.7-3.1 3.6-3.6 13.2 1.3 17.2-2.8 2.4-8.5 4.7-14.5 4.7h-68c-.3 9.5 3.2 16.7 9.5 21 4.9-.1 8.9-.7 12-1.7.5-.2.9.1 1.1.5.2.5-.1.9-.5 1.1-.4.1-.8.3-1.3.4-2.4.7-5.2 1.2-8.5 1.4l-.1-.1c8.5 4.4 20.8 4.3 35-1.1 15.8-6.1 30.6-17.7 40.9-30.9-.2.1-.3.2-.5.2z"/><path fill="#028BB8" d="M18.5 54.6c.4 3.3 1.4 6.4 2.9 9.3l.8 1.5c.5.9 1.1 1.7 1.7 2.6 3 .2 5.7.3 8.2.2 4.9-.1 8.9-.7 12-1.7.5-.2.9.1 1.1.5.2.5-.1.9-.5 1.1-.4.1-.8.3-1.3.4-2.4.7-5.2 1.2-8.5 1.4h-.4c-1.3.1-2.7.1-4.1.1-1.6 0-3.2 0-4.9-.1 6 6.8 15.5 10.8 27.3 10.8 21.4 0 40-8.1 50.8-26H18.5v-.1z"/><path fill="#019BC6" d="M23.3 54.6c1.3 5.8 4.3 10.4 8.8 13.5 4.9-.1 8.9-.7 12-1.7.5-.2.9.1 1.1.5.2.5-.1.9-.5 1.1-.4.1-.8.3-1.3.4-2.4.7-5.2 1.2-8.6 1.4 8.5 4.4 20.8 4.3 34.9-1.1 8.5-3.3 16.8-8.2 24.2-14.1H23.3z"/><path fill-rule="evenodd" clip-rule="evenodd" fill="#00ACD3" d="M28.2 35.5H38v9.8h-9.8v-9.8zm.8.9h.8v8.1H29v-8.1zm1.5 0h.8v8.1h-.8v-8.1zm1.5 0h.8v8.1H32v-8.1zm1.4 0h.8v8.1h-.8v-8.1zm1.5 0h.8v8.1h-.8v-8.1zm1.5 0h.8v8.1h-.8v-8.1zm3.1-12.1h9.8V34h-9.8v-9.7zm.8.8h.8v8.1h-.8v-8.1zm1.5 0h.8v8.1h-.8v-8.1zm1.4 0h.8v8.1h-.8v-8.1zm1.5 0h.8v8.1h-.8v-8.1zm1.5 0h.8v8.1h-.8v-8.1zm1.5 0h.8v8.1h-.8v-8.1z"/><path fill-rule="evenodd" clip-rule="evenodd" fill="#23C2EE" d="M39.5 35.5h9.8v9.8h-9.8v-9.8zm.8.9h.8v8.1h-.8v-8.1zm1.5 0h.8v8.1h-.8v-8.1zm1.4 0h.8v8.1h-.8v-8.1zm1.5 0h.8v8.1h-.8v-8.1zm1.5 0h.8v8.1h-.8v-8.1zm1.5 0h.8v8.1h-.8v-8.1z"/><path fill-rule="evenodd" clip-rule="evenodd" fill="#00ACD3" d="M50.8 35.5h9.8v9.8h-9.8v-9.8zm.8.9h.8v8.1h-.8v-8.1zm1.4 0h.8v8.1H53v-8.1zm1.5 0h.8v8.1h-.8v-8.1zm1.5 0h.8v8.1H56v-8.1zm1.5 0h.8v8.1h-.8v-8.1zm1.4 0h.8v8.1h-.8v-8.1z"/><path fill-rule="evenodd" clip-rule="evenodd" fill="#23C2EE" d="M50.8 24.3h9.8V34h-9.8v-9.7zm.8.8h.8v8.1h-.8v-8.1zm1.4 0h.8v8.1H53v-8.1zm1.5 0h.8v8.1h-.8v-8.1zm1.5 0h.8v8.1H56v-8.1zm1.5 0h.8v8.1h-.8v-8.1zm1.4 0h.8v8.1h-.8v-8.1zM62 35.5h9.8v9.8H62v-9.8zm.9.9h.8v8.1h-.8v-8.1zm1.4 0h.8v8.1h-.8v-8.1zm1.5 0h.8v8.1h-.8v-8.1zm1.5 0h.8v8.1h-.8v-8.1zm1.4 0h.8v8.1h-.8v-8.1zm1.5 0h.8v8.1h-.8v-8.1z"/><path fill-rule="evenodd" clip-rule="evenodd" fill="#00ACD3" d="M62 24.3h9.8V34H62v-9.7zm.9.8h.8v8.1h-.8v-8.1zm1.4 0h.8v8.1h-.8v-8.1zm1.5 0h.8v8.1h-.8v-8.1zm1.5 0h.8v8.1h-.8v-8.1zm1.4 0h.8v8.1h-.8v-8.1zm1.5 0h.8v8.1h-.8v-8.1z"/><path fill-rule="evenodd" clip-rule="evenodd" fill="#23C2EE" d="M62 13h9.8v9.8H62V13zm.9.8h.8V22h-.8v-8.2zm1.4 0h.8V22h-.8v-8.2zm1.5 0h.8V22h-.8v-8.2zm1.5 0h.8V22h-.8v-8.2zm1.4 0h.8V22h-.8v-8.2zm1.5 0h.8V22h-.8v-8.2z"/><path fill-rule="evenodd" clip-rule="evenodd" fill="#00ACD3" d="M73.3 35.5h9.8v9.8h-9.8v-9.8zm.8.9h.8v8.1h-.8v-8.1zm1.5 0h.8v8.1h-.8v-8.1zm1.5 0h.8v8.1h-.8v-8.1zm1.4 0h.8v8.1h-.8v-8.1zm1.5 0h.8v8.1H80v-8.1zm1.5 0h.8v8.1h-.8v-8.1z"/><path fill-rule="evenodd" clip-rule="evenodd" fill="#D4EEF1" d="M48.6 61.2c1.5 0 2.7 1.2 2.7 2.7 0 1.5-1.2 2.7-2.7 2.7-1.5 0-2.7-1.2-2.7-2.7.1-1.5 1.3-2.7 2.7-2.7"/><path fill-rule="evenodd" clip-rule="evenodd" fill="#3A4D54" d="M48.6 61.9c.2 0 .5 0 .7.1-.2.1-.4.4-.4.7 0 .4.4.8.8.8.3 0 .6-.2.7-.4.1.2.1.5.1.7 0 1.1-.9 1.9-1.9 1.9-1.1 0-1.9-.9-1.9-1.9 0-1 .9-1.9 1.9-1.9M1 55.6h125.3c-2.7-.7-8.6-1.6-7.7-5.2-5 5.7-16.9 4-20 1.2-3.4 4.9-23 3-24.3-.8-4.2 5-17.3 5-21.5 0-1.4 3.8-21 5.7-24.3.8-3 2.8-15 4.5-20-1.2 1.1 3.5-4.8 4.5-7.5 5.2"/><path fill="#BFDBE0" d="M55.8 80.6c-6.7-3.2-10.3-7.5-12.4-12.2-2.5.7-5.5 1.2-8.9 1.4-1.3.1-2.7.1-4.1.1-1.7 0-3.4 0-5.2-.1 6.1 6.1 13.7 10.8 27.6 10.9 1-.1 2-.1 3-.1z"/><path fill="#D4EEF1" d="M45.9 72.7c-.9-1.3-1.8-2.8-2.5-4.3-2.5.7-5.5 1.2-8.9 1.4 2.4 1.3 5.8 2.5 11.4 2.9z"/>
	</g>

	<g id="css">
		<path fill="#131313" d="M89.234 5.856H81.85l7.679 8.333v3.967H73.713v-4.645h7.678l-7.678-8.333V1.207h15.521v4.649zm-18.657 0h-7.384l7.679 8.333v3.967H55.055v-4.645h7.679l-7.679-8.333V1.207h15.522v4.649zm-18.474.19h-7.968v7.271h7.968v4.839H38.471V1.207h13.632v4.839z"/><path fill="#1572B6" d="M27.613 116.706l-8.097-90.813h88.967l-8.104 90.798-36.434 10.102-36.332-10.087z"/><path fill="#33A9DC" d="M64.001 119.072l29.439-8.162 6.926-77.591H64.001v85.753z"/><path fill="#fff" d="M64 66.22h14.738l1.019-11.405H64V43.677h27.929l-.267 2.988-2.737 30.692H64V66.22z"/><path fill="#EBEBEB" d="M64.067 95.146l-.049.014-12.404-3.35-.794-8.883H39.641l1.561 17.488 22.814 6.333.052-.015V95.146z"/><path fill="#fff" d="M77.792 76.886L76.45 91.802l-12.422 3.353v11.588l22.833-6.328.168-1.882 1.938-21.647H77.792z"/><path fill="#EBEBEB" d="M64.039 43.677v11.137H37.136l-.224-2.503-.507-5.646-.267-2.988h27.901zM64 66.221v11.138H51.753l-.223-2.503-.508-5.647-.267-2.988H64z"/>
	</g>

	<g id="bootstrap">
		<path fill="url(#a)" d="M14.985 15.15c-.237-6.815 5.072-13.099 12.249-13.099h73.54c7.177 0 12.486 6.284 12.249 13.099-.228 6.546.068 15.026 2.202 21.94 2.141 6.936 5.751 11.319 11.664 11.883v6.387c-5.913.563-9.523 4.947-11.664 11.883-2.134 6.914-2.43 15.394-2.202 21.94.237 6.815-5.072 13.098-12.249 13.098h-73.54c-7.177 0-12.486-6.284-12.249-13.098.228-6.546-.068-15.026-2.203-21.94-2.14-6.935-5.76-11.319-11.673-11.883v-6.387c5.913-.563 9.533-4.947 11.673-11.883 2.135-6.914 2.43-15.394 2.203-21.94Z"/><g filter="url(#b)"><path fill="url(#c)" d="M67.11 79.174c11.619 0 18.62-5.689 18.62-15.072 0-7.093-4.995-12.228-12.413-13.041v-.296c5.45-.886 9.726-5.947 9.726-11.6 0-8.053-6.358-13.299-16.047-13.299h-21.8v53.308H67.11ZM53.674 32.627h11.279c6.13 0 9.613 2.733 9.613 7.684 0 5.282-4.05 8.238-11.392 8.238h-9.5V32.627Zm0 39.787V54.866h11.203c8.023 0 12.186 2.955 12.186 8.718s-4.049 8.83-11.694 8.83H53.674Z"/><path fill="#fff" d="M67.11 79.174c11.619 0 18.62-5.689 18.62-15.072 0-7.093-4.995-12.228-12.413-13.041v-.296c5.45-.886 9.726-5.947 9.726-11.6 0-8.053-6.358-13.299-16.047-13.299h-21.8v53.308H67.11ZM53.674 32.627h11.279c6.13 0 9.613 2.733 9.613 7.684 0 5.282-4.05 8.238-11.392 8.238h-9.5V32.627Zm0 39.787V54.866h11.203c8.023 0 12.186 2.955 12.186 8.718s-4.049 8.83-11.694 8.83H53.674Z"/></g><path fill="#7952B3" d="M11.398 121.43v-17.738h5.047c1.533 0 2.75.375 3.649 1.126.899.75 1.348 1.727 1.348 2.931 0 1.007-.272 1.881-.816 2.623-.545.742-1.295 1.27-2.252 1.583v.05c1.196.14 2.153.593 2.87 1.36.717.759 1.076 1.748 1.076 2.969 0 1.517-.544 2.746-1.632 3.686-1.089.94-2.462 1.41-4.12 1.41h-5.17Zm2.078-15.858v5.727h2.128c1.138 0 2.033-.272 2.684-.816.651-.553.977-1.329.977-2.326 0-1.723-1.134-2.585-3.402-2.585h-2.387Zm0 7.595v6.383h2.82c1.22 0 2.165-.289 2.833-.866.676-.577 1.014-1.369 1.014-2.375 0-2.095-1.427-3.142-4.28-3.142h-2.387Zm17.466 8.563c-1.872 0-3.369-.59-4.49-1.769-1.113-1.187-1.67-2.758-1.67-4.713 0-2.127.581-3.789 1.744-4.985 1.163-1.195 2.734-1.793 4.713-1.793 1.888 0 3.36.581 4.416 1.744 1.063 1.163 1.595 2.775 1.595 4.836 0 2.021-.573 3.641-1.72 4.862-1.137 1.212-2.667 1.818-4.588 1.818Zm.148-11.553c-1.303 0-2.333.445-3.092 1.336-.759.882-1.138 2.102-1.138 3.661 0 1.501.383 2.685 1.15 3.55.767.867 1.793 1.3 3.08 1.3 1.311 0 2.318-.425 3.019-1.275.709-.849 1.063-2.057 1.063-3.624 0-1.583-.354-2.804-1.063-3.662-.701-.857-1.708-1.286-3.019-1.286Zm14.696 11.553c-1.872 0-3.369-.59-4.49-1.769-1.113-1.187-1.67-2.758-1.67-4.713 0-2.127.581-3.789 1.744-4.985 1.163-1.195 2.734-1.793 4.713-1.793 1.888 0 3.36.581 4.416 1.744 1.064 1.163 1.596 2.775 1.596 4.836 0 2.021-.573 3.641-1.72 4.862-1.138 1.212-2.668 1.818-4.59 1.818Zm.148-11.553c-1.303 0-2.333.445-3.092 1.336-.759.882-1.138 2.102-1.138 3.661 0 1.501.383 2.685 1.15 3.55.767.867 1.793 1.3 3.08 1.3 1.311 0 2.318-.425 3.019-1.275.709-.849 1.063-2.057 1.063-3.624 0-1.583-.354-2.804-1.063-3.662-.701-.857-1.708-1.286-3.02-1.286ZM61.21 121.31c-.478.264-1.109.396-1.893.396-2.218 0-3.327-1.237-3.327-3.711v-7.496h-2.177v-1.732h2.177v-3.092l2.029-.656v3.748h3.19v1.732h-3.19v7.137c0 .849.144 1.456.433 1.819.288.363.766.544 1.434.544.511 0 .953-.14 1.324-.42v1.731Zm1.942-.34v-2.177c1.105.816 2.321 1.224 3.649 1.224 1.781 0 2.672-.593 2.672-1.78 0-.339-.078-.623-.235-.854a2.138 2.138 0 0 0-.619-.631 4.326 4.326 0 0 0-.915-.482 34.7 34.7 0 0 0-1.126-.458 16.416 16.416 0 0 1-1.484-.668 4.918 4.918 0 0 1-1.064-.767 3.059 3.059 0 0 1-.643-.977c-.14-.363-.21-.787-.21-1.274 0-.593.136-1.117.408-1.571a3.53 3.53 0 0 1 1.088-1.15 5.01 5.01 0 0 1 1.547-.706 6.94 6.94 0 0 1 1.806-.235c1.097 0 2.078.19 2.944.57v2.053c-.932-.611-2.004-.916-3.217-.916-.38 0-.721.045-1.026.136a2.5 2.5 0 0 0-.792.36 1.735 1.735 0 0 0-.507.568 1.493 1.493 0 0 0-.173.718c0 .329.058.605.173.828.123.223.3.421.532.594.23.173.511.33.841.47.33.14.705.293 1.126.458.56.214 1.063.437 1.509.668a4.9 4.9 0 0 1 1.138.767c.313.28.552.606.717.977.173.371.26.812.26 1.323 0 .627-.14 1.171-.42 1.633-.273.462-.64.845-1.102 1.15a5.078 5.078 0 0 1-1.595.681 7.852 7.852 0 0 1-1.893.223c-1.303 0-2.433-.252-3.39-.755h.001Zm17.39.34c-.477.264-1.108.396-1.892.396-2.218 0-3.327-1.237-3.327-3.711v-7.496h-2.177v-1.732h2.177v-3.092l2.029-.656v3.748h3.19v1.732h-3.19v7.137c0 .849.144 1.456.433 1.819.288.363.766.544 1.434.544.511 0 .953-.14 1.324-.42v1.731Zm9.316-10.49c-.355-.272-.866-.408-1.534-.408-.866 0-1.592.408-2.177 1.224-.577.817-.866 1.93-.866 3.34v6.457h-2.028v-12.666h2.028v2.61h.05c.289-.891.73-1.583 1.323-2.078.593-.503 1.257-.755 1.992-.755.527 0 .931.058 1.212.174v2.102Zm11.271 10.61H99.1v-1.98h-.05c-.881 1.518-2.18 2.277-3.894 2.277-1.262 0-2.252-.334-2.97-1.002-.709-.668-1.063-1.555-1.063-2.66 0-2.367 1.393-3.743 4.18-4.13l3.798-.533c0-2.152-.87-3.228-2.61-3.228-1.525 0-2.902.519-4.131 1.558v-2.078c1.245-.791 2.68-1.187 4.305-1.187 2.977 0 4.465 1.575 4.465 4.725v8.238Zm-2.03-6.407-3.054.42c-.94.132-1.65.367-2.128.705-.478.33-.717.92-.717 1.769 0 .619.219 1.126.656 1.522.445.387 1.035.58 1.769.58 1.006 0 1.835-.35 2.486-1.05.66-.709.99-1.604.99-2.685l-.001-1.261Zm7.93 4.577h-.05v7.657h-2.028v-18.493h2.029v2.226h.049c.998-1.682 2.458-2.523 4.379-2.523 1.633 0 2.907.569 3.822 1.707.915 1.129 1.373 2.647 1.373 4.552 0 2.119-.515 3.818-1.546 5.096-1.031 1.27-2.441 1.905-4.23 1.905-1.641 0-2.907-.709-3.798-2.128v.001Zm-.05-5.109v1.77c0 1.047.338 1.937 1.015 2.671.685.726 1.55 1.089 2.597 1.089 1.229 0 2.19-.47 2.883-1.41.7-.94 1.05-2.247 1.05-3.922 0-1.41-.325-2.515-.976-3.315-.651-.8-1.534-1.2-2.647-1.2-1.18 0-2.128.412-2.845 1.237-.718.817-1.077 1.843-1.077 3.08Z"/><defs><linearGradient id="a" x1="19.8" x2="129.708" y1="4.704" y2="91.95" gradientUnits="userSpaceOnUse"><stop stop-color="#9013FE"/><stop offset="1" stop-color="#6610F2"/></linearGradient><linearGradient id="c" x1="49.032" x2="73.598" y1="29.374" y2="70.922" gradientUnits="userSpaceOnUse"><stop stop-color="#fff"/><stop offset="1" stop-color="#F1E5FC"/></linearGradient><filter id="b" width="48.641" height="61.415" x="41.143" y="22.795" color-interpolation-filters="sRGB" filterUnits="userSpaceOnUse"><feFlood flood-opacity="0" result="BackgroundImageFix"/><feColorMatrix in="SourceAlpha" result="hardAlpha" values="0 0 0 0 0 0 0 0 0 0 0 0 0 0 0 0 0 0 127 0"/><feOffset dy=".983"/><feGaussianBlur stdDeviation="1.965"/><feColorMatrix values="0 0 0 0 0 0 0 0 0 0 0 0 0 0 0 0 0 0 0.15 0"/><feBlend in2="BackgroundImageFix" result="effect1_dropShadow_2_2"/><feBlend in="SourceGraphic" in2="effect1_dropShadow_2_2" result="shape"/></filter></defs>
	</g>
</svg>
